# xmcd
#
# Track frame offsets:
#	150
#	11416
#	31585
#	49724
#	65087
#	80168
#	92733
#	112622
#	128098
#	144821
#	157849
#	174820
#
# Disc length: 2506 seconds
#
# Revision: 1
# Processed by: cddbd v1.4PL0 Copyright (c) Steve Scherf et al.
# Submitted via: audiograbber 1.81.01
#
DISCID=8109c80c
DTITLE=Johnny Sax - I Grandi Successi Originali cd2
DYEAR=1900
DGENRE=Pop
TTITLE0=Papillon
TTITLE1=Corazon
TTITLE2=Love's Theme
TTITLE3=Senza lei
TTITLE4=The way we were
TTITLE5=Amore grande amore libero
TTITLE6=Donna con te
TTITLE7=Il padrino (Parte II)
TTITLE8=What a wonderful world
TTITLE9=Borriquito
TTITLE10=Emanuelle 2 (L'antivergine)
TTITLE11=Theme for a sweetheart lady
EXTD=
EXTT0=
EXTT1=
EXTT2=
EXTT3=
EXTT4=
EXTT5=
EXTT6=
EXTT7=
EXTT8=
EXTT9=
EXTT10=
EXTT11=
PLAYORDER=
